<?xml version="1.0" standalone="no"?>
<!DOCTYPE svg PUBLIC "-//W3C//DTD SVG 20010904//EN"
 "http://www.w3.org/TR/2001/REC-SVG-20010904/DTD/svg10.dtd">
<svg version="1.0" xmlns="http://www.w3.org/2000/svg"
 width="512.000000pt" height="512.000000pt" viewBox="0 0 512.000000 512.000000"
 preserveAspectRatio="xMidYMid meet">

<g transform="translate(0.000000,512.000000) scale(0.100000,-0.100000)"
fill="#ba282b" stroke="none">
<path d="M1958 4630 c-20 -11 -46 -33 -57 -49 -30 -42 -86 -215 -118 -366 -25
-121 -27 -147 -28 -375 0 -195 4 -265 18 -345 37 -202 123 -413 307 -755 124
-231 135 -268 135 -455 0 -138 -2 -156 -28 -230 -16 -44 -61 -136 -101 -205
-111 -190 -119 -206 -180 -342 -101 -229 -187 -512 -231 -759 -13 -76 -14
-104 -6 -137 31 -115 160 -173 269 -121 58 29 84 72 122 204 121 420 301 774
490 965 70 70 161 140 183 140 12 0 2 -190 -19 -380 -21 -185 -57 -376 -106
-560 -50 -190 -53 -209 -38 -255 40 -121 192 -173 300 -101 52 34 65 61 155
327 231 679 319 1142 295 1546 -18 284 -88 504 -206 649 -25 31 -38 57 -41 87
-5 41 -2 46 93 167 261 331 434 644 496 895 18 74 19 91 8 130 -25 88 -126
148 -211 125 -71 -19 -104 -61 -154 -195 -119 -318 -310 -624 -450 -720 -83
-56 -160 -79 -265 -79 -103 0 -177 21 -257 73 -76 49 -127 109 -171 200 -33
69 -36 83 -40 186 -5 139 8 250 55 436 41 167 40 199 -10 256 -56 64 -137 80
-209 43z"/>
<path d="M2555 4448 c-220 -28 -387 -256 -346 -474 29 -158 140 -285 289 -330
64 -20 182 -19 245 2 115 38 201 115 254 230 25 53 28 70 28 164 0 94 -3 111
-28 164 -83 178 -247 269 -442 244z"/>
<path d="M1416 4118 c-9 -12 -16 -37 -16 -55 0 -32 -2 -33 -38 -33 -43 0 -62
-14 -62 -47 0 -26 27 -43 69 -43 28 0 31 -3 31 -31 0 -42 17 -69 43 -69 33 0
47 19 47 62 0 36 1 38 33 38 36 0 77 24 77 45 0 25 -31 45 -71 45 -39 0 -39 0
-39 39 0 64 -44 93 -74 49z"/>
<path d="M3812 3728 c-7 -7 -12 -31 -12 -55 l0 -43 -43 0 c-48 0 -67 -13 -67
-47 0 -27 27 -43 74 -43 36 0 36 0 36 -45 0 -46 19 -68 50 -57 23 8 30 23 30
65 0 36 1 37 39 37 40 0 71 20 71 45 0 25 -31 45 -71 45 l-39 0 0 45 c0 34 -5
47 -19 55 -25 13 -34 13 -49 -2z"/>
<path d="M1185 3311 c-46 -27 -69 -69 -69 -124 0 -80 62 -142 144 -142 110 0
178 114 126 213 -35 67 -135 94 -201 53z"/>
<path d="M3782 3138 c-19 -19 -14 -44 14 -78 l27 -31 -27 -28 c-31 -32 -34
-66 -6 -81 23 -12 45 -4 74 29 l18 20 38 -30 c31 -25 42 -29 58 -20 16 9 32
31 32 46 0 3 -13 20 -30 38 l-30 34 21 19 c32 29 41 51 29 74 -15 28 -49 25
-81 -6 l-28 -27 -31 27 c-34 28 -59 33 -78 14z"/>
<path d="M1863 2584 c-75 -37 -99 -152 -46 -215 73 -86 195 -74 243 26 61 127
-69 252 -197 189z"/>
<path d="M3532 2488 c-20 -20 -14 -50 15 -80 l27 -28 -27 -28 c-29 -30 -35
-60 -15 -80 19 -19 40 -14 73 18 l31 30 29 -30 c33 -34 70 -39 85 -11 14 27
14 26 -21 66 l-32 36 32 32 c35 37 38 49 15 71 -22 23 -39 20 -77 -14 l-34
-29 -28 29 c-31 32 -54 37 -73 18z"/>
<path d="M1362 1918 c-6 -6 -12 -31 -12 -54 l0 -43 -46 -3 c-88 -6 -88 -70 0
-76 l46 -3 0 -43 c0 -50 18 -71 54 -62 22 5 25 13 28 54 l3 47 40 3 c50 4 67
18 63 51 -3 23 -8 27 -53 31 l-50 5 -5 50 c-4 44 -8 50 -30 53 -14 2 -31 -3
-38 -10z"/>
<path d="M3595 1783 c-83 -22 -130 -127 -90 -202 28 -54 71 -81 130 -81 43 0
60 5 85 26 58 49 74 111 46 178 -24 58 -107 96 -171 79z"/>
</g>
</svg>
