<?xml version="1.0" standalone="no"?>
<!DOCTYPE svg PUBLIC "-//W3C//DTD SVG 20010904//EN"
 "http://www.w3.org/TR/2001/REC-SVG-20010904/DTD/svg10.dtd">
<svg version="1.0" xmlns="http://www.w3.org/2000/svg"
 width="600.000000pt" height="537.000000pt" viewBox="0 0 600.000000 537.000000"
 preserveAspectRatio="xMidYMid meet">

<g transform="translate(0.000000,537.000000) scale(0.100000,-0.100000)"
fill="#ba282b" stroke="none">
<path d="M1365 5351 c-91 -33 -153 -70 -219 -132 -158 -147 -229 -353 -192
-558 8 -46 19 -88 24 -93 13 -13 243 211 356 346 105 126 201 256 275 375 l51
81 -122 -1 c-91 0 -136 -5 -173 -18z"/>
<path d="M5585 5349 c-22 -5 -43 -13 -47 -17 -4 -4 48 -64 115 -132 68 -69
161 -176 207 -237 93 -126 92 -126 126 -24 47 146 -37 329 -184 393 -53 24
-157 32 -217 17z"/>
<path d="M1724 5272 c-166 -270 -441 -600 -633 -757 -33 -27 -61 -55 -61 -62
0 -6 22 -39 48 -72 127 -157 290 -234 497 -234 169 0 298 55 426 182 123 123
180 263 180 441 0 47 -7 112 -16 145 -47 185 -187 349 -357 419 l-36 16 -48
-78z"/>
<path d="M5323 5229 c-43 -22 -82 -44 -86 -48 -4 -5 40 -53 99 -107 106 -98
248 -255 313 -346 19 -27 38 -48 43 -48 5 0 47 18 94 40 l85 41 -18 30 c-74
125 -397 479 -438 479 -8 0 -49 -18 -92 -41z"/>
<path d="M3794 5144 c-31 -15 -102 -81 -93 -87 24 -16 161 -138 225 -199 l80
-78 27 28 c100 104 61 280 -75 336 -47 20 -124 20 -164 0z"/>
<path d="M5053 5084 c-35 -19 -63 -38 -63 -41 0 -3 49 -57 109 -119 109 -112
246 -276 290 -347 12 -20 28 -37 34 -37 10 0 155 75 166 85 2 2 -27 44 -65 92
-72 94 -378 403 -397 403 -7 0 -40 -16 -74 -36z"/>
<path d="M3595 4973 c-11 -8 -29 -21 -39 -28 -18 -13 -15 -19 47 -102 37 -48
90 -127 118 -175 l52 -87 31 21 c17 12 53 39 79 61 57 47 66 31 -100 182 -152
139 -163 147 -188 128z"/>
<path d="M4765 4914 c-498 -313 -978 -713 -1359 -1133 -35 -38 -53 -51 -62
-45 -35 24 -683 519 -681 520 1 1 81 12 178 23 249 31 534 98 546 129 11 28
-101 372 -125 385 -4 3 -52 -9 -106 -24 -203 -59 -454 -89 -746 -89 l-176 0
-13 -62 c-27 -134 -123 -289 -228 -373 -117 -93 -285 -154 -426 -155 l-52 -1
-115 -152 c-63 -83 -157 -198 -209 -254 -247 -269 -336 -450 -296 -604 35
-138 131 -216 295 -239 82 -12 183 -3 348 31 l102 22 0 32 c0 80 -61 316 -94
360 -12 16 -17 16 -79 2 -37 -8 -67 -12 -67 -8 0 15 49 53 59 46 14 -8 91 17
368 121 194 73 231 84 285 84 76 0 130 -23 181 -74 56 -58 72 -100 72 -186 0
-129 -59 -208 -191 -257 -41 -15 -74 -30 -74 -34 0 -3 161 -94 357 -202 197
-109 364 -201 371 -206 10 -6 8 -37 -12 -157 -58 -344 -91 -658 -106 -1015
-11 -275 -8 -306 29 -316 45 -13 480 -5 556 9 l70 13 7 235 c13 470 83 988
199 1469 45 188 50 197 196 376 367 449 917 915 1461 1235 50 30 92 58 92 63
0 32 -207 282 -352 424 l-83 82 -120 -75z"/>
<path d="M3393 4852 l-32 -17 28 -65 c35 -82 88 -237 97 -284 3 -20 10 -38 14
-41 4 -2 46 14 94 38 l86 42 -46 82 c-56 99 -174 257 -195 260 -7 1 -28 -5
-46 -15z"/>
<path d="M618 4705 c-61 -20 -137 -93 -176 -171 -31 -61 -75 -191 -87 -258 -6
-31 -15 -43 -53 -65 -139 -81 -224 -182 -268 -318 -27 -82 -29 -98 -28 -243 1
-164 16 -262 71 -458 21 -76 29 -92 42 -87 9 4 28 9 44 12 15 3 30 9 32 13 3
5 -10 68 -29 141 -46 180 -60 292 -54 435 4 91 11 132 27 175 27 67 81 139
140 188 l43 35 -8 -109 c-16 -197 -9 -474 15 -640 21 -146 63 -350 73 -361 8
-7 98 17 98 26 0 5 -9 46 -20 92 -64 271 -87 644 -56 912 9 77 17 140 19 142
1 1 70 30 152 64 155 64 322 146 365 179 20 16 22 21 11 35 -7 9 -28 57 -45
108 l-32 93 -65 32 c-77 39 -146 48 -211 28z m169 -122 c28 -16 65 -40 84 -55
33 -27 33 -28 14 -42 -42 -31 -175 -96 -293 -145 l-123 -51 6 33 c11 52 56
159 84 202 58 88 137 108 228 58z"/>
<path d="M2060 3474 c0 -5 16 -55 35 -111 19 -57 43 -145 52 -198 10 -52 22
-95 28 -95 20 0 73 39 98 72 40 51 54 117 38 175 -25 95 -92 151 -191 160 -33
3 -60 2 -60 -3z"/>
<path d="M1886 3414 c-22 -8 -41 -16 -44 -18 -2 -2 8 -37 23 -78 32 -87 75
-262 75 -302 0 -26 2 -28 27 -21 15 3 42 13 61 21 l34 14 -7 55 c-8 66 -45
208 -75 288 -23 62 -29 65 -94 41z"/>
<path d="M1683 3348 c-18 -6 -33 -14 -33 -17 0 -3 13 -45 29 -93 34 -98 61
-220 61 -273 0 -39 5 -40 61 -23 27 8 39 17 39 30 0 73 -92 389 -113 387 -7
-1 -27 -6 -44 -11z"/>
<path d="M3315 987 c-25 -7 -143 -12 -323 -12 l-282 0 0 -93 c0 -109 -7 -103
145 -122 138 -18 500 -3 519 21 5 8 -6 219 -13 218 -3 -1 -24 -6 -46 -12z"/>
<path d="M2723 639 c3 -19 9 -75 13 -125 3 -51 9 -97 13 -103 15 -24 155 -44
321 -45 159 -1 324 16 335 35 3 4 0 67 -7 139 l-12 132 -36 -5 c-171 -25 -307
-30 -438 -19 -75 7 -150 15 -166 19 -28 6 -29 5 -23 -28z"/>
<path d="M2774 247 c28 -94 110 -178 207 -212 23 -8 74 -15 113 -15 94 0 172
36 238 109 48 54 103 178 69 157 -24 -15 -283 -37 -371 -31 -92 6 -217 21
-252 31 -16 5 -16 2 -4 -39z"/>
</g>
</svg>
