<?xml version="1.0" standalone="no"?>
<!DOCTYPE svg PUBLIC "-//W3C//DTD SVG 20010904//EN"
 "http://www.w3.org/TR/2001/REC-SVG-20010904/DTD/svg10.dtd">
<svg version="1.0" xmlns="http://www.w3.org/2000/svg"
 width="512.000000pt" height="512.000000pt" viewBox="0 0 512.000000 512.000000"
 preserveAspectRatio="xMidYMid meet">

<g transform="translate(0.000000,512.000000) scale(0.100000,-0.100000)"
fill="#ba282b" stroke="none">
<path d="M505 4450 c-127 -27 -238 -86 -324 -171 -312 -311 -202 -848 214
-1045 100 -48 174 -64 290 -64 186 0 322 55 445 179 87 87 131 164 160 277 55
212 -5 439 -157 604 -135 146 -292 219 -483 226 -58 2 -123 -1 -145 -6z"/>
<path d="M3249 4275 c-187 -36 -346 -116 -481 -244 -195 -184 -298 -415 -301
-673 l-1 -96 -175 -69 -176 -68 -585 -5 c-510 -4 -590 -7 -628 -21 -123 -48
-257 -162 -304 -261 -41 -84 -53 -184 -35 -288 24 -142 77 -255 185 -399 103
-137 334 -536 433 -748 73 -157 166 -377 172 -411 11 -55 56 -138 101 -189
103 -113 265 -165 416 -133 25 5 390 182 811 392 l766 382 634 -288 c348 -159
651 -295 672 -302 65 -23 155 -18 215 12 190 95 201 362 20 478 -30 18 -360
218 -735 444 -500 300 -695 413 -733 422 -105 25 -125 19 -726 -228 -308 -126
-611 -253 -674 -281 -62 -28 -116 -51 -118 -51 -13 0 41 47 120 106 81 61 87
67 76 87 -31 59 -257 441 -300 510 l-50 77 -62 0 c-71 0 -224 19 -245 30 -7 4
28 12 80 19 92 11 209 29 494 75 l140 23 370 173 c549 256 537 249 579 325
l17 30 -5 -38 c-11 -83 -66 -125 -343 -259 -92 -45 -170 -83 -173 -86 -3 -2
26 -33 64 -69 128 -119 293 -204 465 -238 124 -25 325 -17 444 19 384 115 647
440 682 843 9 100 -8 239 -42 348 -98 313 -358 558 -674 635 -112 27 -290 34
-390 15z"/>
</g>
</svg>
